<mxfile host="Electron" modified="2024-06-13T15:35:20.139Z" agent="Mozilla/5.0 (Windows NT 10.0; Win64; x64) AppleWebKit/537.36 (KHTML, like Gecko) draw.io/22.1.21 Chrome/120.0.6099.109 Electron/28.1.0 Safari/537.36" etag="Pw5oE5uBKHWr4io6FhIa" version="22.1.21" type="device">
  <diagram name="Page-1" id="rv2WSQOHbSYmJ5pYIKVm">
    <mxGraphModel dx="5736" dy="3416" grid="1" gridSize="10" guides="1" tooltips="1" connect="1" arrows="1" fold="1" page="1" pageScale="1" pageWidth="850" pageHeight="1100" math="0" shadow="0">
      <root>
        <mxCell id="0" />
        <mxCell id="1" parent="0" />
        <mxCell id="Zl-mfUEg5mn7F1NSgS0E-1" value="" style="shape=image;verticalLabelPosition=bottom;labelBackgroundColor=default;verticalAlign=top;aspect=fixed;imageAspect=0;image=data:image/png,iVBORw0KGgoAAAANSUhEUgAABQQAAAraCAIAAADbgId6AAAAAXNSR0IArs4c6QAAAARnQU1BAACxjwv8YQUAAAAJcEhZcwAADsMAAA7DAcdvqGQAAD+jSURBVHhe7NdBAQAQAMBApED/oD5a7O6zDJv73AEAAAAl6xcAAAAyzDAAAAA5ZhgAAIAcMwwAAECOGQYAACDHDAMAAJBjhgEAAMgxwwAAAOSYYQAAAHLMMAAAADlmGAAAgBwzDAAAQI4ZBgAAIMcMAwAAkGOGAQAAyDHDAAAA5JhhAAAAcswwAAAAOWYYAACAHDMMAABAjhkGAAAgxwwDAACQY4YBAADIMcMAAADkmGEAAAByzDAAAAA5ZhgAAIAcMwwAAECOGQYAACDHDAMAAJBjhgEAAMgxwwAAAOSYYQAAAHLMMAAAADlmGAAAgBwzDAAAQI4ZBgAAIMcMAwAAkGOGAQAAyDHDAAAA5JhhAAAAcswwAAAAOWYYAACAHDMMAABAjhkGAAAgxwwDAACQY4YBAADIMcMAAADkmGEAAAByzDAAAAA5ZhgAAIAcMwwAAECOGQYAACDHDAMAAJBjhgEAAMgxwwAAAOSYYQAAAHLMMAAAADlmGAAAgBwzDAAAQI4ZBgAAIMcMAwAAkGOGAQAAyDHDAAAA5JhhAAAAcswwAAAAOWYYAACAHDMMAABAjhkGAAAgxwwDAACQY4YBAADIMcMAAADkmGEAAAByzDAAAAA5ZhgAAIAcMwwAAECOGQYAACDHDAMAAJBjhgEAAMgxwwAAAOSYYQAAAHLMMAAAADlmGAAAgBwzDAAAQI4ZBgAAIMcMAwAAkGOGAQAAyDHDAAAA5JhhAAAAcswwAAAAOWYYAACAHDMMAABAjhkGAAAgxwwDAACQY4YBAADIMcMAAADkmGEAAAByzDAAAAA5ZhgAAIAcMwwAAECOGQYAACDHDAMAAJBjhgEAAMgxwwAAAOSYYQAAAHLMMAAAADlmGAAAgBwzDAAAQI4ZBgAAIMcMAwAAkGOGAQAAyDHDAAAA5JhhAAAAcswwAAAAOWYYAACAHDMMAABAjhkGAAAgxwwDAACQY4YBAADIMcMAAADkmGEAAAByzDAAAAA5ZhgAAIAcMwwAAECOGQYAACDHDAMAAJBjhgEAAMgxwwAAAOSYYQAAAHLMMAAAADlmGAAAgBwzDAAAQI4ZBgAAIMcMAwAAkGOGAQAAyDHDAAAA5JhhAAAAcswwAAAAOWYYAACAHDMMAABAjhkGAAAgxwwDAACQY4YBAADIMcMAAADkmGEAAAByzDAAAAA5ZhgAAIAcMwwAAECOGQYAACDHDAMAAJBjhgEAAMgxwwAAAOSYYQAAAHLMMAAAADlmGAAAgBwzDAAAQI4ZBgAAIMcMAwAAkGOGAQAAyDHDAAAA5JhhAAAAcswwAAAAOWYYAACAHDMMAABAjhkGAAAgxwwDAACQY4YBAADIMcMAAADkmGEAAAByzDAAAAA5ZhgAAIAcMwwAAECOGQYAACDHDAMAAJBjhgEAAMgxwwAAAOSYYQAAAHLMMAAAADlmGAAAgBwzDAAAQI4ZBgAAIMcMAwAAkGOGAQAAyDHDAAAA5JhhAAAAcswwAAAAOWYYAACAHDMMAABAjhkGAAAgxwwDAACQY4YBAADIMcMAAADkmGEAAAByzDAAAAA5ZhgAAIAcMwwAAECOGQYAACDHDAMAAJBjhgEAAMgxwwAAAOSYYQAAAHLMMAAAADlmGAAAgBwzDAAAQI4ZBgAAIMcMAwAAkGOGAQAAyDHDAAAA5JhhAAAAcswwAAAAOWYYAACAHDMMAABAjhkGAAAgxwwDAACQY4YBAADIMcMAAADkmGEAAAByzDAAAAA5ZhgAAIAcMwwAAECOGQYAACDHDAMAAJBjhgEAAMgxwwAAAOSYYQAAAHLMMAAAADlmGAAAgBwzDAAAQI4ZBgAAIMcMAwAAkGOGAQAAyDHDAAAA5JhhAAAAcswwAAAAOWYYAACAHDMMAABAjhkGAAAgxwwDAACQY4YBAADIMcMAAADkmGEAAAByzDAAAAA5ZhgAAIAcMwwAAECOGQYAACDHDAMAAJBjhgEAAMgxwwAAAOSYYQAAAHLMMAAAADlmGAAAgBwzDAAAQI4ZBgAAIMcMAwAAkGOGAQAAyDHDAAAA5JhhAAAAcswwAAAAOWYYAACAHDMMAABAjhkGAAAgxwwDAACQY4YBAADIMcMAAADkmGEAAAByzDAAAAA5ZhgAAIAcMwwAAECOGQYAACDHDAMAAJBjhgEAAMgxwwAAAOSYYQAAAHLMMAAAADlmGAAAgBwzDAAAQI4ZBgAAIMcMAwAAkGOGAQAAyDHDAAAA5JhhAAAAcswwAAAAOWYYAACAHDMMAABAjhkGAAAgxwwDAACQY4YBAADIMcMAAADkmGEAAAByzDAAAAA5ZhgAAIAcMwwAAECOGQYAACDHDAMAAJBjhgEAAMgxwwAAAOSYYQAAAHLMMAAAADlmGAAAgBwzDAAAQI4ZBgAAIMcMAwAAkGOGAQAAyDHDAAAA5JhhAAAAcswwAAAAOWYYAACAHDMMAABAjhkGAAAgxwwDAACQY4YBAADIMcMAAADkmGEAAAByzDAAAAA5ZhgAAIAcMwwAAECOGQYAACDHDAMAAJBjhgEAAMgxwwAAAOSYYQAAAHLMMAAAADlmGAAAgBwzDAAAQI4ZBgAAIMcMAwAAkGOGAQAAyDHDAAAA5JhhAAAAcswwAAAAOWYYAACAHDMMAABAjhkGAAAgxwwDAACQY4YBAADIMcMAAADkmGEAAAByzDAAAAA5ZhgAAIAcMwwAAECOGQYAACDHDAMAAJBjhgEAAMgxwwAAAOSYYQAAAHLMMAAAADlmGAAAgBwzDAAAQI4ZBgAAIMcMAwAAkGOGAQAAyDHDAAAA5JhhAAAAcswwAAAAOWYYAACAHDMMAABAjhkGAAAgxwwDAACQY4YBAADIMcMAAADkmGEAAAByzDAAAAA5ZhgAAIAcMwwAAECOGQYAACDHDAMAAJBjhgEAAMgxwwAAAOSYYQAAAHLMMAAAADlmGAAAgBwzDAAAQI4ZBgAAIMcMAwAAkGOGAQAAyDHDAAAA5JhhAAAAcswwAAAAOWYYAACAHDMMAABAjhkGAAAgxwwDAACQY4YBAADIMcMAAADkmGEAAAByzDAAAAA5ZhgAAIAcMwwAAECOGQYAACDHDAMAAJBjhgEAAMgxwwAAAOSYYQAAAHLMMAAAADlmGAAAgBwzDAAAQI4ZBgAAIMcMAwAAkGOGAQAAyDHDAAAA5JhhAAAAcswwAAAAOWYYAACAHDMMAABAjhkGAAAgxwwDAACQY4YBAADIMcMAAADkmGEAAAByzDAAAAA5ZhgAAIAcMwwAAECOGQYAACDHDAMAAJBjhgEAAMgxwwAAAOSYYQAAAHLMMAAAADlmGAAAgBwzDAAAQI4ZBgAAIMcMAwAAkGOGAQAAyDHDAAAA5JhhAAAAcswwAAAAOWYYAACAHDMMAABAjhkGAAAgxwwDAACQY4YBAADIMcMAAADkmGEAAAByzDAAAAA5ZhgAAIAcMwwAAECOGQYAACDHDAMAAJBjhgEAAMgxwwAAAOSYYQAAAHLMMAAAADlmGAAAgBwzDAAAQI4ZBgAAIMcMAwAAkGOGAQAAyDHDAAAA5JhhAAAAcswwAAAAOWYYAACAHDMMAABAjhkGAAAgxwwDAACQY4YBAADIMcMAAADkmGEAAAByzDAAAAA5ZhgAAIAcMwwAAECOGQYAACDHDAMAAJBjhgEAAMgxwwAAAOSYYQAAAHLMMAAAADlmGAAAgBwzDAAAQI4ZBgAAIMcMAwAAkGOGAQAAyDHDAAAA5JhhAAAAcswwAAAAOWYYAACAHDMMAABAjhkGAAAgxwwDAACQY4YBAADIMcMAAADkmGEAAAByzDAAAAA5ZhgAAIAcMwwAAECOGQYAACDHDAMAAJBjhgEAAMgxwwAAAOSYYQAAAHLMMAAAADlmGAAAgBwzDAAAQI4ZBgAAIMcMAwAAkGOGAQAAyDHDAAAA5JhhAAAAcswwAAAAOWYYAACAHDMMAABAjhkGAAAgxwwDAACQY4YBAADIMcMAAADkmGEAAAByzDAAAAA5ZhgAAIAcMwwAAECOGQYAACDHDAMAAJBjhgEAAMgxwwAAAOSYYQAAAHLMMAAAADlmGAAAgBwzDAAAQI4ZBgAAIMcMAwAAkGOGAQAAyDHDAAAA5JhhAAAAcswwAAAAOWYYAACAHDMMAABAjhkGAAAgxwwDAACQY4YBAADIMcMAAADkmGEAAAByzDAAAAA5ZhgAAIAcMwwAAECOGQYAACDHDAMAAJBjhgEAAMgxwwAAAOSYYQAAAHLMMAAAADlmGAAAgBwzDAAAQI4ZBgAAIMcMAwAAkGOGAQAAyDHDAAAA5JhhAAAAcswwAAAAOWYYAACAHDMMAABAjhkGAAAgxwwDAACQY4YBAADIMcMAAADkmGEAAAByzDAAAAA5ZhgAAIAcMwwAAECOGQYAACDHDAMAAJBjhgEAAMgxwwAAAOSYYQAAAHLMMAAAADlmGAAAgBwzDAAAQI4ZBgAAIMcMAwAAkGOGAQAAyDHDAAAA5JhhAAAAcswwAAAAOWYYAACAHDMMAABAjhkGAAAgxwwDAACQY4YBAADIMcMAAADkmGEAAAByzDAAAAA5ZhgAAIAcMwwAAECOGQYAACDHDAMAAJBjhgEAAMgxwwAAAOSYYQAAAHLMMAAAADlmGAAAgBwzDAAAQI4ZBgAAIMcMAwAAkGOGAQAAyDHDAAAA5JhhAAAAcswwAAAAOWYYAACAHDMMAABAjhkGAAAgxwwDAACQY4YBAADIMcMAAADkmGEAAAByzDAAAAA5ZhgAAIAcMwwAAECOGQYAACDHDAMAAJBjhgEAAMgxwwAAAOSYYQAAAHLMMAAAADlmGAAAgBwzDAAAQI4ZBgAAIMcMAwAAkGOGAQAAyDHDAAAA5JhhAAAAcswwAAAAOWYYAACAHDMMAABAjhkGAAAgxwwDAACQY4YBAADIMcMAAADkmGEAAAByzDAAAAA5ZhgAAIAcMwwAAECOGQYAACDHDAMAAJBjhgEAAMgxwwAAAOSYYQAAAHLMMAAAADlmGAAAgBwzDAAAQI4ZBgAAIMcMAwAAkGOGAQAAyDHDAAAA5JhhAAAAcswwAAAAOWYYAACAHDMMAABAjhkGAAAgxwwDAACQY4YBAADIMcMAAADkmGEAAAByzDAAAAA5ZhgAAIAcMwwAAECOGQYAACDHDAMAAJBjhgEAAMgxwwAAAOSYYQAAAHLMMAAAADlmGAAAgBwzDAAAQI4ZBgAAIMcMAwAAkGOGAQAAyDHDAAAA5JhhAAAAcswwAAAAOWYYAACAHDMMAABAjhkGAAAgxwwDAACQY4YBAADIMcMAAADkmGEAAAByzDAAAAA5ZhgAAIAcMwwAAECOGQYAACDHDAMAAJBjhgEAAMgxwwAAAOSYYQAAAHLMMAAAADlmGAAAgBwzDAAAQI4ZBgAAIMcMAwAAkGOGAQAAyDHDAAAA5JhhAAAAcswwAAAAOWYYAACAHDMMAABAjhkGAAAgxwwDAACQY4YBAADIMcMAAADkmGEAAAByzDAAAAA5ZhgAAIAcMwwAAECOGQYAACDHDAMAAJBjhgEAAMgxwwAAAOSYYQAAAHLMMAAAADlmGAAAgBwzDAAAQI4ZBgAAIMcMAwAAkGOGAQAAyDHDAAAA5JhhAAAAcswwAAAAOWYYAACAHDMMAABAjhkGAAAgxwwDAACQY4YBAADIMcMAAADkmGEAAAByzDAAAAA5ZhgAAIAcMwwAAECOGQYAACDHDAMAAJBjhgEAAMgxwwAAAOSYYQAAAHLMMAAAADlmGAAAgBwzDAAAQI4ZBgAAIMcMAwAAkGOGAQAAyDHDAAAA5JhhAAAAcswwAAAAOWYYAACAHDMMAABAjhkGAAAgxwwDAACQY4YBAADIMcMAAADkmGEAAAByzDAAAAA5ZhgAAIAcMwwAAECOGQYAACDHDAMAAJBjhgEAAMgxwwAAAOSYYQAAAHLMMAAAADlmGAAAgBwzDAAAQI4ZBgAAIMcMAwAAkGOGAQAAyDHDAAAA5JhhAAAAcswwAAAAOWYYAACAHDMMAABAjhkGAAAgxwwDAACQY4YBAADIMcMAAADkmGEAAAByzDAAAAA5ZhgAAIAcMwwAAECOGQYAACDHDAMAAJBjhgEAAMgxwwAAAOSYYQAAAHLMMAAAADlmGAAAgBwzDAAAQI4ZBgAAIMcMAwAAkGOGAQAAyDHDAAAA5JhhAAAAcswwAAAAOWYYAACAHDMMAABAjhkGAAAgxwwDAACQY4YBAADIMcMAAADkmGEAAAByzDAAAAA5ZhgAAIAcMwwAAECOGQYAACDHDAMAAJBjhgEAAMgxwwAAAOSYYQAAAHLMMAAAADlmGAAAgBwzDAAAQI4ZBgAAIMcMAwAAkGOGAQAAyDHDAAAA5JhhAAAAcswwAAAAOWYYAACAHDMMAABAjhkGAAAgxwwDAACQY4YBAADIMcMAAADkmGEAAAByzDAAAAA5ZhgAAIAcMwwAAECOGQYAACDHDAMAAJBjhgEAAMgxwwAAAOSYYQAAAHLMMAAAADlmGAAAgBwzDAAAQI4ZBgAAIMcMAwAAkGOGAQAAyDHDAAAA5JhhAAAAcswwAAAAOWYYAACAHDMMAABAjhkGAAAgxwwDAACQY4YBAADIMcMAAADkmGEAAAByzDAAAAA5ZhgAAIAcMwwAAECOGQYAACDHDAMAAJBjhgEAAMgxwwAAAOSYYQAAAHLMMAAAADlmGAAAgBwzDAAAQI4ZBgAAIMcMAwAAkGOGAQAAyDHDAAAA5JhhAAAAcswwAAAAOWYYAACAHDMMAABAjhkGAAAgxwwDAACQY4YBAADIMcMAAADkmGEAAAByzDAAAAA5ZhgAAIAcMwwAAECOGQYAACDHDAMAAJBjhgEAAMgxwwAAAOSYYQAAAHLMMAAAADlmGAAAgBwzDAAAQI4ZBgAAIMcMAwAAkGOGAQAAyDHDAAAA5JhhAAAAcswwAAAAOWYYAACAHDMMAABAjhkGAAAgxwwDAACQY4YBAADIMcMAAADkmGEAAAByzDAAAAA5ZhgAAIAcMwwAAECOGQYAACDHDAMAAJBjhgEAAMgxwwAAAOSYYQAAAHLMMAAAADlmGAAAgBwzDAAAQI4ZBgAAIMcMAwAAkGOGAQAAyDHDAAAA5JhhAAAAcswwAAAAOWYYAACAHDMMAABAjhkGAAAgxwwDAACQY4YBAADIMcMAAADkmGEAAAByzDAAAAA5ZhgAAIAcMwwAAECOGQYAACDHDAMAAJBjhgEAAMgxwwAAAOSYYQAAAHLMMAAAADlmGAAAgBwzDAAAQI4ZBgAAIMcMAwAAkGOGAQAAyDHDAAAA5JhhAAAAcswwAAAAOWYYAACAHDMMAABAjhkGAAAgxwwDAACQY4YBAADIMcMAAADkmGEAAAByzDAAAAA5ZhgAAIAcMwwAAECOGQYAACDHDAMAAJBjhgEAAMgxwwAAAOSYYQAAAHLMMAAAADlmGAAAgBwzDAAAQI4ZBgAAIMcMAwAAkGOGAQAAyDHDAAAA5JhhAAAAcswwAAAAOWYYAACAHDMMAABAjhkGAAAgxwwDAACQY4YBAADIMcMAAADkmGEAAAByzDAAAAA5ZhgAAIAcMwwAAECOGQYAACDHDAMAAJBjhgEAAMgxwwAAAOSYYQAAAHLMMAAAADlmGAAAgBwzDAAAQI4ZBgAAIMcMAwAAkGOGAQAAyDHDAAAA5JhhAAAAcswwAAAAOWYYAACAHDMMAABAjhkGAAAgxwwDAACQY4YBAADIMcMAAADkmGEAAAByzDAAAAA5ZhgAAIAcMwwAAECOGQYAACDHDAMAAJBjhgEAAMgxwwAAAOSYYQAAAHLMMAAAADlmGAAAgBwzDAAAQI4ZBgAAIMcMAwAAkGOGAQAAyDHDAAAA5JhhAAAAcswwAAAAOWYYAACAHDMMAABAjhkGAAAgxwwDAACQY4YBAADIMcMAAADkmGEAAAByzDAAAAA5ZhgAAIAcMwwAAECOGQYAACDHDAMAAJBjhgEAAMgxwwAAAOSYYQAAAHLMMAAAADlmGAAAgBwzDAAAQI4ZBgAAIMcMAwAAkGOGAQAAyDHDAAAA5JhhAAAAcswwAAAAOWYYAACAHDMMAABAjhkGAAAgxwwDAACQY4YBAADIMcMAAADkmGEAAAByzDAAAAA5ZhgAAIAcMwwAAECOGQYAACDHDAMAAJBjhgEAAMgxwwAAAOSYYQAAAHLMMAAAADlmGAAAgBwzDAAAQI4ZBgAAIMcMAwAAkGOGAQAAyDHDAAAA5JhhAAAAcswwAAAAOWYYAACAHDMMAABAjhkGAAAgxwwDAACQY4YBAADIMcMAAADkmGEAAAByzDAAAAA5ZhgAAIAcMwwAAECOGQYAACDHDAMAAJBjhgEAAMgxwwAAAOSYYQAAAHLMMAAAADlmGAAAgBwzDAAAQI4ZBgAAIMcMAwAAkGOGAQAAyDHDAAAA5JhhAAAAcswwAAAAOWYYAACAHDMMAABAjhkGAAAgxwwDAACQY4YBAADIMcMAAADkmGEAAAByzDAAAAA5ZhgAAIAcMwwAAECOGQYAACDHDAMAAJBjhgEAAMgxwwAAAOSYYQAAAHLMMAAAADlmGAAAgBwzDAAAQI4ZBgAAIMcMAwAAkGOGAQAAyDHDAAAA5JhhAAAAcswwAAAAOWYYAACAHDMMAABAjhkGAAAgxwwDAACQY4YBAADIMcMAAADkmGEAAAByzDAAAAA5ZhgAAIAcMwwAAECOGQYAACDHDAMAAJBjhgEAAMgxwwAAAOSYYQAAAHLMMAAAADlmGAAAgBwzDAAAQI4ZBgAAIMcMAwAAkGOGAQAAyDHDAAAA5JhhAAAAcswwAAAAOWYYAACAHDMMAABAjhkGAAAgxwwDAACQY4YBAADIMcMAAADkmGEAAAByzDAAAAA5ZhgAAIAcMwwAAECOGQYAACDHDAMAAJBjhgEAAMgxwwAAAOSYYQAAAHLMMAAAADlmGAAAgBwzDAAAQI4ZBgAAIMcMAwAAkGOGAQAAyDHDAAAA5JhhAAAAcswwAAAAOWYYAACAHDMMAABAjhkGAAAgxwwDAACQY4YBAADIMcMAAADkmGEAAAByzDAAAAA5ZhgAAIAcMwwAAECOGQYAACDHDAMAAJBjhgEAAMgxwwAAAOSYYQAAAHLMMAAAADlmGAAAgBwzDAAAQI4ZBgAAIMcMAwAAkGOGAQAAyDHDAAAA5JhhAAAAcswwAAAAOWYYAACAHDMMAABAjhkGAAAgxwwDAACQY4YBAADIMcMAAADkmGEAAAByzDAAAAA5ZhgAAIAcMwwAAECOGQYAACDHDAMAAJBjhgEAAMgxwwAAAOSYYQAAAHLMMAAAADlmGAAAgBwzDAAAQI4ZBgAAIMcMAwAAkGOGAQAAyDHDAAAA5JhhAAAAcswwAAAAOWYYAACAHDMMAABAjhkGAAAgxwwDAACQY4YBAADIMcMAAADkmGEAAAByzDAAAAA5ZhgAAIAcMwwAAECOGQYAACDHDAMAAJBjhgEAAMgxwwAAAOSYYQAAAHLMMAAAADlmGAAAgBwzDAAAQI4ZBgAAIMcMAwAAkGOGAQAAyDHDAAAA5JhhAAAAcswwAAAAOWYYAACAHDMMAABAjhkGAAAgxwwDAACQY4YBAADIMcMAAADkmGEAAAByzDAAAAA5ZhgAAIAcMwwAAECOGQYAACDHDAMAAJBjhgEAAMgxwwAAAOSYYQAAAHLMMAAAADlmGAAAgBwzDAAAQI4ZBgAAIMcMAwAAkGOGAQAAyDHDAAAA5JhhAAAAcswwAAAAOWYYAACAHDMMAABAjhkGAAAgxwwDAACQY4YBAADIMcMAAADkmGEAAAByzDAAAAA5ZhgAAIAcMwwAAECOGQYAACDHDAMAAJBjhgEAAMgxwwAAAOSYYQAAAHLMMAAAADlmGAAAgBwzDAAAQI4ZBgAAIMcMAwAAkGOGAQAAyDHDAAAA5JhhAAAAcswwAAAAOWYYAACAHDMMAABAjhkGAAAgxwwDAACQY4YBAADIMcMAAADkmGEAAAByzDAAAAA5ZhgAAIAcMwwAAECOGQYAACDHDAMAAJBjhgEAAMgxwwAAAOSYYQAAAHLMMAAAADlmGAAAgBwzDAAAQI4ZBgAAIMcMAwAAkGOGAQAAyDHDAAAA5JhhAAAAcswwAAAAOWYYAACAHDMMAABAjhkGAAAgxwwDAACQY4YBAADIMcMAAADkmGEAAAByzDAAAAA5ZhgAAIAcMwwAAECOGQYAACDHDAMAAJBjhgEAAMgxwwAAAOSYYQAAAHLMMAAAADlmGAAAgBwzDAAAQI4ZBgAAIMcMAwAAkGOGAQAAyDHDAAAA5JhhAAAAcswwAAAAOWYYAACAHDMMAABAjhkGAAAgxwwDAACQY4YBAADIMcMAAADkmGEAAAByzDAAAAA5ZhgAAIAcMwwAAECOGQYAACDHDAMAAJBjhgEAAMgxwwAAAOSYYQAAAHLMMAAAADlmGAAAgBwzDAAAQI4ZBgAAIMcMAwAAkGOGAQAAyDHDAAAA5JhhAAAAcswwAAAAOWYYAACAHDMMAABAjhkGAAAgxwwDAACQY4YBAADIMcMAAADkmGEAAAByzDAAAAA5ZhgAAIAcMwwAAECOGQYAACDHDAMAAJBjhgEAAMgxwwAAAOSYYQAAAHLMMAAAADlmGAAAgBwzDAAAQI4ZBgAAIMcMAwAAkGOGAQAAyDHDAAAA5JhhAAAAcswwAAAAOWYYAACAHDMMAABAjhkGAAAgxwwDAACQY4YBAADIMcMAAADkmGEAAAByzDAAAAA5ZhgAAIAcMwwAAECOGQYAACDHDAMAAJBjhgEAAMgxwwAAAOSYYQAAAHLMMAAAADlmGAAAgBwzDAAAQI4ZBgAAIMcMAwAAkGOGAQAAyDHDAAAA5JhhAAAAcswwAAAAOWYYAACAHDMMAABAjhkGAAAgxwwDAACQY4YBAADIMcMAAADkmGEAAAByzDAAAAA5ZhgAAIAcMwwAAECOGQYAACDHDAMAAJBjhgEAAMgxwwAAAOSYYQAAAHLMMAAAADlmGAAAgBwzDAAAQI4ZBgAAIMcMAwAAkGOGAQAAyDHDAAAA5JhhAAAAcswwAAAAOWYYAACAHDMMAABAjhkGAAAgxwwDAACQY4YBAADIMcMAAADkmGEAAAByzDAAAAA5ZhgAAIAcMwwAAECOGQYAACDHDAMAAJBjhgEAAMgxwwAAAOSYYQAAAHLMMAAAADlmGAAAgBwzDAAAQI4ZBgAAIMcMAwAAkGOGAQAAyDHDAAAA5JhhAAAAcswwAAAAOWYYAACAHDMMAABAjhkGAAAgxwwDAACQY4YBAADIMcMAAADkmGEAAAByzDAAAAA5ZhgAAIAcMwwAAECOGQYAACDHDAMAAJBjhgEAAMgxwwAAAOSYYQAAAHLMMAAAADlmGAAAgBwzDAAAQI4ZBgAAIMcMAwAAkGOGAQAAyDHDAAAA5JhhAAAAcswwAAAAOWYYAACAHDMMAABAjhkGAAAgxwwDAACQY4YBAADIMcMAAADkmGEAAAByzDAAAAA5ZhgAAIAcMwwAAECOGQYAACDHDAMAAJBjhgEAAMgxwwAAAOSYYQAAAHLMMAAAADlmGAAAgBwzDAAAQI4ZBgAAIMcMAwAAkGOGAQAAyDHDAAAA5JhhAAAAcswwAAAAOWYYAACAHDMMAABAjhkGAAAgxwwDAACQY4YBAADIMcMAAADkmGEAAAByzDAAAAA5ZhgAAIAcMwwAAECOGQYAACDHDAMAAJBjhgEAAMgxwwAAAOSYYQAAAHLMMAAAADlmGAAAgBwzDAAAQI4ZBgAAIMcMAwAAkGOGAQAAyDHDAAAA5JhhAAAAcswwAAAAOWYYAACAHDMMAABAjhkGAAAgxwwDAACQY4YBAADIMcMAAADkmGEAAAByzDAAAAA5ZhgAAIAcMwwAAECOGQYAACDHDAMAAJBjhgEAAMgxwwAAAOSYYQAAAHLMMAAAADlmGAAAgBwzDAAAQI4ZBgAAIMcMAwAAkGOGAQAAyDHDAAAA5JhhAAAAcswwAAAAOWYYAACAHDMMAABAjhkGAAAgxwwDAACQY4YBAADIMcMAAADkmGEAAAByzDAAAAA5ZhgAAIAcMwwAAECOGQYAACDHDAMAAJBjhgEAAMgxwwAAAOSYYQAAAHLMMAAAADlmGAAAgBwzDAAAQI4ZBgAAIMcMAwAAkGOGAQAAyDHDAAAA5JhhAAAAcswwAAAAOWYYAACAHDMMAABAjhkGAAAgxwwDAACQY4YBAADIMcMAAADkmGEAAAByzDAAAAA5ZhgAAIAcMwwAAECOGQYAACDHDAMAAJBjhgEAAMgxwwAAAOSYYQAAAHLMMAAAADlmGAAAgBwzDAAAQI4ZBgAAIMcMAwAAkGOGAQAAyDHDAAAA5JhhAAAAcswwAAAAOWYYAACAHDMMAABAjhkGAAAgxwwDAACQY4YBAADIMcMAAADkmGEAAAByzDAAAAA5ZhgAAIAcMwwAAECOGQYAACDHDAMAAJBjhgEAAMgxwwAAAOSYYQAAAHLMMAAAADlmGAAAgBwzDAAAQI4ZBgAAIMcMAwAAkGOGAQAAyDHDAAAA5JhhAAAAcswwAAAAOWYYAACAHDMMAABAjhkGAAAgxwwDAACQY4YBAADIMcMAAADkmGEAAAByzDAAAAA5ZhgAAIAcMwwAAECOGQYAACDHDAMAAJBjhgEAAMgxwwAAAOSYYQAAAHLMMAAAADlmGAAAgBwzDAAAQI4ZBgAAIMcMAwAAkGOGAQAAyDHDAAAA5JhhAAAAcswwAAAAOWYYAACAHDMMAABAjhkGAAAgxwwDAACQY4YBAADIMcMAAADkmGEAAAByzDAAAAA5ZhgAAIAcMwwAAECOGQYAACDHDAMAAJBjhgEAAMgxwwAAAOSYYQAAAHLMMAAAADlmGAAAgBwzDAAAQI4ZBgAAIMcMAwAAkGOGAQAAyDHDAAAA5JhhAAAAcswwAAAAOWYYAACAHDMMAABAjhkGAAAgxwwDAACQY4YBAADIMcMAAADkmGEAAAByzDAAAAA5ZhgAAIAcMwwAAECOGQYAACDHDAMAAJBjhgEAAMgxwwAAAOSYYQAAAHLMMAAAADlmGAAAgBwzDAAAQI4ZBgAAIMcMAwAAkGOGAQAAyDHDAAAA5JhhAAAAcswwAAAAOWYYAACAHDMMAABAjhkGAAAgxwwDAACQY4YBAADIMcMAAADkmGEAAAByzDAAAAA5ZhgAAIAcMwwAAECOGQYAACDHDAMAAJBjhgEAAMgxwwAAAOSYYQAAAHLMMAAAADlmGAAAgBwzDAAAQI4ZBgAAIMcMAwAAkGOGAQAAyDHDAAAA5JhhAAAAcswwAAAAOWYYAACAHDMMAABAjhkGAAAgxwwDAACQY4YBAADIMcMAAADkmGEAAAByzDAAAAA5ZhgAAIAcMwwAAECOGQYAACDHDAMAAJBjhgEAAMgxwwAAAOSYYQAAAHLMMAAAADlmGAAAgBwzDAAAQI4ZBgAAIMcMAwAAkGOGAQAAyDHDAAAA5JhhAAAAcswwAAAAOWYYAACAHDMMAABAjhkGAAAgxwwDAACQY4YBAADIMcMAAADkmGEAAAByzDAAAAA5ZhgAAIAcMwwAAECOGQYAACDHDAMAAJBjhgEAAMgxwwAAAOSYYQAAAHLMMAAAADlmGAAAgBwzDAAAQI4ZBgAAIMcMAwAAkGOGAQAAyDHDAAAA5JhhAAAAcswwAAAAOWYYAACAHDMMAABAjhkGAAAgxwwDAACQY4YBAADIMcMAAADkmGEAAAByzDAAAAA5ZhgAAIAcMwwAAECOGQYAACDHDAMAAJBjhgEAAMgxwwAAAOSYYQAAAHLMMAAAADlmGAAAgBwzDAAAQI4ZBgAAIMcMAwAAkGOGAQAAyDHDAAAA5JhhAAAAcswwAAAAOWYYAACAHDMMAABAjhkGAAAgxwwDAACQY4YBAADIMcMAAADkmGEAAAByzDAAAAA5ZhgAAIAcMwwAAECOGQYAACDHDAMAAJBjhgEAAMgxwwAAAOSYYQAAAHLMMAAAADlmGAAAgBwzDAAAQI4ZBgAAIMcMAwAAkGOGAQAAyDHDAAAA5JhhAAAAcswwAAAAOWYYAACAHDMMAABAjhkGAAAgxwwDAACQY4YBAADIMcMAAADkmGEAAAByzDAAAAA5ZhgAAIAcMwwAAECOGQYAACDHDAMAAJBjhgEAAMgxwwAAAOSYYQAAAHLMMAAAADlmGAAAgBwzDAAAQI4ZBgAAIMcMAwAAkGOGAQAAyDHDAAAA5JhhAAAAcswwAAAAOWYYAACAHDMMAABAjhkGAAAgxwwDAACQY4YBAADIMcMAAADkmGEAAAByzDAAAAA5ZhgAAIAcMwwAAECOGQYAACDHDAMAAJBjhgEAAMgxwwAAAOSYYQAAAHLMMAAAADlmGAAAgBwzDAAAQI4ZBgAAIMcMAwAAkGOGAQAAyDHDAAAA5JhhAAAAcswwAAAAOWYYAACAHDMMAABAjhkGAAAgxwwDAACQY4YBAADIMcMAAADkmGEAAAByzDAAAAA5ZhgAAIAcMwwAAECOGQYAACDHDAMAAJBjhgEAAMgxwwAAAOSYYQAAAHLMMAAAADlmGAAAgBwzDAAAQI4ZBgAAIMcMAwAAkGOGAQAAyDHDAAAA5JhhAAAAcswwAAAAOWYYAACAHDMMAABAjhkGAAAgxwwDAACQY4YBAADIMcMAAADkmGEAAAByzDAAAAA5ZhgAAIAcMwwAAECOGQYAACDHDAMAAJBjhgEAAMgxwwAAAOSYYQAAAHLMMAAAADlmGAAAgBwzDAAAQI4ZBgAAIMcMAwAAkGOGAQAAyDHDAAAA5JhhAAAAcswwAAAAOWYYAACAHDMMAABAjhkGAAAgxwwDAACQY4YBAADIMcMAAADkmGEAAAByzDAAAAA5ZhgAAIAcMwwAAECOGQYAACDHDAMAAJBjhgEAAMgxwwAAAOSYYQAAAHLMMAAAADlmGAAAgBwzDAAAQI4ZBgAAIMcMAwAAkGOGAQAAyDHDAAAA5JhhAAAAcswwAAAAOWYYAACAHDMMAABAjhkGAAAgxwwDAACQY4YBAADIMcMAAADkmGEAAAByzDAAAAA5ZhgAAIAcMwwAAECOGQYAACDHDAMAAJBjhgEAAMgxwwAAAOSYYQAAAHLMMAAAADlmGAAAgBwzDAAAQI4ZBgAAIMcMAwAAkGOGAQAAyDHDAAAA5JhhAAAAcswwAAAAOWYYAACAHDMMAABAjhkGAAAgxwwDAACQY4YBAADIMcMAAADkmGEAAAByzDAAAAA5ZhgAAIAcMwwAAECOGQYAACDHDAMAAJBjhgEAAMgxwwAAAOSYYQAAAHLMMAAAADlmGAAAgBwzDAAAQI4ZBgAAIMcMAwAAkGOGAQAAyDHDAAAA5JhhAAAAcswwAAAAOWYYAACAHDMMAABAjhkGAAAgxwwDAACQY4YBAADIMcMAAADkmGEAAAByzDAAAAA5ZhgAAIAcMwwAAECOGQYAACDHDAMAAJBjhgEAAMgxwwAAAOSYYQAAAHLMMAAAADlmGAAAgBwzDAAAQI4ZBgAAIMcMAwAAkGOGAQAAyDHDAAAA5JhhAAAAcswwAAAAOWYYAACAHDMMAABAjhkGAAAgxwwDAACQY4YBAADIMcMAAADkmGEAAAByzDAAAAA5ZhgAAIAcMwwAAECOGQYAACDHDAMAAJBjhgEAAMgxwwAAAOSYYQAAAHLMMAAAADlmGAAAgBwzDAAAQI4ZBgAAIMcMAwAAkGOGAQAAyDHDAAAA5JhhAAAAcswwAAAAOWYYAACAHDMMAABAjhkGAAAgxwwDAACQY4YBAADIMcMAAADkmGEAAAByzDAAAAA5ZhgAAIAcMwwAAECOGQYAACDHDAMAAJBjhgEAAMgxwwAAAOSYYQAAAHLMMAAAADlmGAAAgBwzDAAAQI4ZBgAAIMcMAwAAkGOGAQAAyDHDAAAA5JhhAAAAcswwAAAAOWYYAACAHDMMAABAjhkGAAAgxwwDAACQY4YBAADIMcMAAADkmGEAAAByzDAAAAA5ZhgAAIAcMwwAAECOGQYAACDHDAMAAJBjhgEAAMgxwwAAAOSYYQAAAHLMMAAAADlmGAAAgBwzDAAAQI4ZBgAAIMcMAwAAkGOGAQAAyDHDAAAA5JhhAAAAcswwAAAAOWYYAACAHDMMAABAjhkGAAAgxwwDAACQY4YBAADIMcMAAADkmGEAAAByzDAAAAA5ZhgAAIAcMwwAAECOGQYAACDHDAMAAJBjhgEAAMgxwwAAAOSYYQAAAHLMMAAAADlmGAAAgBwzDAAAQI4ZBgAAIMcMAwAAkGOGAQAAyDHDAAAA5JhhAAAAcswwAAAAOWYYAACAHDMMAABAjhkGAAAgxwwDAACQY4YBAADIMcMAAADkmGEAAAByzDAAAAA5ZhgAAIAcMwwAAECOGQYAACDHDAMAAJBjhgEAAMgxwwAAAOSYYQAAAHLMMAAAADlmGAAAgBwzDAAAQI4ZBgAAIMcMAwAAkGOGAQAAyDHDAAAA5JhhAAAAcswwAAAAOWYYAACAHDMMAABAjhkGAAAgxwwDAACQY4YBAADIMcMAAADkmGEAAAByzDAAAAA5ZhgAAIAcMwwAAECOGQYAACDHDAMAAJBjhgEAAMgxwwAAAOSYYQAAAHLMMAAAADlmGAAAgBwzDAAAQI4ZBgAAIMcMAwAAkGOGAQAAyDHDAAAA5JhhAAAAcswwAAAAOWYYAACAHDMMAABAjhkGAAAgxwwDAACQY4YBAADIMcMAAADkmGEAAAByzDAAAAA5ZhgAAIAcMwwAAECOGQYAACDHDAMAAJBjhgEAAMgxwwAAAOSYYQAAAHLMMAAAADlmGAAAgBwzDAAAQI4ZBgAAIMcMAwAAkGOGAQAAyDHDAAAA5JhhAAAAcswwAAAAOWYYAACAHDMMAABAjhkGAAAgxwwDAACQY4YBAADIMcMAAADkmGEAAAByzDAAAAA5ZhgAAIAcMwwAAECOGQYAACDHDAMAAJBjhgEAAMgxwwAAAOSYYQAAAHLMMAAAADlmGAAAgBwzDAAAQI4ZBgAAIMcMAwAAkGOGAQAAyDHDAAAA5JhhAAAAcswwAAAAOWYYAACAHDMMAABAjhkGAAAgxwwDAACQY4YBAADIMcOv/ToQAAAAYBh0f+qDrCwCAAAgR4YBAADIkWEAAAByZBgAAIAcGQYAACBHhgEAAMiRYQAAAHJkGAAAgBwZBgAAIEeGAQAAyJFhAAAAcmQYAACAHBkGAAAgR4YBAADIkWEAAAByZBgAAIAcGQYAACBHhgEAAMiRYQAAAHJkGAAAgBwZBgAAIEeGAQAAyJFhAAAAcmQYAACAHBkGAAAgR4YBAADIkWEAAAByZBgAAIAcGQYAACBHhgEAAMiRYQAAAHJkGAAAgBwZBgAAIEeGAQAAyJFhAAAAcmQYAACAHBkGAAAgR4YBAADIkWEAAAByZBgAAIAcGQYAACBHhgEAAMiRYQAAAHJkGAAAgBwZBgAAIEeGAQAAyJFhAAAAcmQYAACAHBkGAAAgR4YBAADIkWEAAAByZBgAAIAcGQYAACBHhgEAAMiRYQAAAHJkGAAAgBwZBgAAIEeGAQAAyJFhAAAAcmQYAACAHBkGAAAgR4YBAADIkWEAAAByZBgAAIAcGQYAACBHhgEAAMiRYQAAAHJkGAAAgBwZBgAAIEeGAQAAyJFhAAAAcmQYAACAHBkGAAAgR4YBAADIkWEAAAByZBgAAIAcGQYAACBHhgEAAMiRYQAAAHJkGAAAgBwZBgAAIEeGAQAAyJFhAAAAcmQYAACAHBkGAAAgR4YBAADIkWEAAAByZBgAAIAcGQYAACBHhgEAAMiRYQAAAHJkGAAAgBwZBgAAIEeGAQAAyJFhAAAAcmQYAACAHBkGAAAgR4YBAADIkWEAAAByZBgAAIAcGQYAACBHhgEAAMiRYQAAAHJkGAAAgBwZBgAAIEeGAQAAyJFhAAAAcmQYAACAHBkGAAAgR4YBAADIkWEAAAByZBgAAIAcGQYAACBHhgEAAMiRYQAAAHJkGAAAgBwZBgAAIEeGAQAAyJFhAAAAcmQYAACAHBkGAAAgR4YBAADIkWEAAAByZBgAAIAcGQYAACBHhgEAAMiRYQAAAHJkGAAAgBwZBgAAIEeGAQAAyJFhAAAAcmQYAACAHBkGAAAgR4YBAADIkWEAAAByZBgAAIAcGQYAACBHhgEAAMiRYQAAAHJkGAAAgBwZBgAAIEeGAQAAyJFhAAAAcmQYAACAHBkGAAAgR4YBAADIkWEAAAByZBgAAIAcGQYAACBHhgEAAMiRYQAAAHJkGAAAgBwZBgAAIEeGAQAAyJFhAAAAcmQYAACAHBkGAAAgR4YBAADIkWEAAAByZBgAAIAcGQYAACBHhgEAAMiRYQAAAHJkGAAAgBwZBgAAIEeGAQAAyJFhAAAAcmQYAACAHBkGAAAgR4YBAADIkWEAAAByZBgAAIAcGQYAACBHhgEAAMiRYQAAAHJkGAAAgBwZBgAAIEeGAQAAyJFhAAAAcmQYAACAHBkGAAAgR4YBAADIkWEAAAByZBgAAIAcGQYAACBHhgEAAMiRYQAAAHJkGAAAgBwZBgAAIEeGAQAAyJFhAAAAcmQYAACAHBkGAAAgR4YBAADIkWEAAAByZBgAAIAcGQYAACBHhgEAAMiRYQAAAHJkGAAAgBwZBgAAIEeGAQAAyJFhAAAAcmQYAACAHBkGAAAgR4YBAADIkWEAAAByZBgAAIAcGQYAACBHhgEAAMiRYQAAAHJkGAAAgBwZBgAAIEeGAQAAyJFhAAAAcmQYAACAHBkGAAAgR4YBAADIkWEAAAByZBgAAIAcGQYAACBHhgEAAMiRYQAAAHJkGAAAgBwZBgAAIEeGAQAAyJFhAAAAcmQYAACAHBkGAAAgR4YBAADIkWEAAAByZBgAAIAcGQYAACBHhgEAAMiRYQAAAHJkGAAAgBwZBgAAIEeGAQAAyJFhAAAAcmQYAACAHBkGAAAgR4YBAADIkWEAAAByZBgAAIAcGQYAACBHhgEAAMiRYQAAAHJkGAAAgBwZBgAAIEeGAQAAyJFhAAAAcmQYAACAHBkGAAAgR4YBAADIkWEAAAByZBgAAIAcGQYAACBHhgEAAMiRYQAAAHJkGAAAgBwZBgAAIEeGAQAAyJFhAAAAcmQYAACAHBkGAAAgR4YBAADIkWEAAAByZBgAAIAcGQYAACBHhgEAAMiRYQAAAHJkGAAAgBwZBgAAIEeGAQAAyJFhAAAAcmQYAACAHBkGAAAgR4YBAADIkWEAAAByZBgAAIAcGQYAACBHhgEAAMiRYQAAAHJkGAAAgBwZBgAAIEeGAQAAyJFhAAAAcmQYAACAHBkGAAAgR4YBAADIkWEAAAByZBgAAIAcGQYAACBHhgEAAMiRYQAAAHJkGAAAgBwZBgAAIEeGAQAAyJFhAAAAcmQYAACAHBkGAAAgR4YBAADIkWEAAAByZBgAAIAcGQYAACBHhgEAAMiRYQAAAHJkGAAAgBwZBgAAIEeGAQAAyJFhAAAAcmQYAACAHBkGAAAgR4YBAADIkWEAAAByZBgAAIAcGQYAACBHhgEAAMiRYQAAAHJkGAAAgBwZBgAAIEeGAQAAyJFhAAAAcmQYAACAHBkGAAAgR4YBAADIkWEAAAByZBgAAIAcGQYAACBHhgEAAMiRYQAAAHJkGAAAgBwZBgAAIEeGAQAAyJFhAAAAcmQYAACAHBkGAAAgR4YBAADIkWEAAAByZBgAAIAcGQYAACBHhgEAAMiRYQAAAHJkGAAAgBwZBgAAIEeGAQAAyJFhAAAAcmQYAACAHBkGAAAgR4YBAADIkWEAAAByZBgAAIAcGQYAACBHhgEAAMiRYQAAAHJkGAAAgBwZBgAAIEeGAQAAyJFhAAAAcmQYAACAHBkGAAAgR4YBAADIkWEAAAByZBgAAIAcGQYAACBHhgEAAMiRYQAAAHJkGAAAgBwZBgAAIEeGAQAAyJFhAAAAcmQYAACAHBkGAAAgR4YBAADIkWEAAAByZBgAAIAcGQYAACBHhgEAAMiRYQAAAHJkGAAAgBwZBgAAIEeGAQAAyJFhAAAAcmQYAACAHBkGAAAgR4YBAADIkWEAAAByZBgAAIAcGQYAACBHhgEAAMiRYQAAAHJkGAAAgBwZBgAAIEeGAQAAyJFhAAAAcmQYAACAHBkGAAAgR4YBAADIkWEAAAByZBgAAIAcGQYAACBHhgEAAMiRYQAAAHJkGAAAgBwZBgAAIEeGAQAAyJFhAAAAcmQYAACAHBkGAAAgR4YBAADIkWEAAAByZBgAAIAcGQYAACBHhgEAAMiRYQAAAHJkGAAAgBwZBgAAIEeGAQAAyJFhAAAAcmQYAACAHBkGAAAgR4YBAADIkWEAAAByZBgAAIAcGQYAACBHhgEAAMiRYQAAAHJkGAAAgBwZBgAAIEeGAQAAyJFhAAAAcmQYAACAHBkGAAAgR4YBAADIkWEAAAByZBgAAIAcGQYAACBHhgEAAMiRYQAAAHJkGAAAgBwZBgAAIEeGAQAAyJFhAAAAcmQYAACAHBkGAAAgR4YBAADIkWEAAAByZBgAAIAcGQYAACBHhgEAAMiRYQAAAHJkGAAAgBwZBgAAIEeGAQAAyJFhAAAAcmQYAACAHBkGAAAgR4YBAADIkWEAAAByZBgAAIAcGQYAACBHhgEAAMiRYQAAAHJkGAAAgBwZBgAAIEeGAQAAyJFhAAAAcmQYAACAHBkGAAAgR4YBAADIkWEAAAByZBgAAIAcGQYAACBHhgEAAMiRYQAAAHJkGAAAgBwZBgAAIEeGAQAAyJFhAAAAcmQYAACAHBkGAAAgR4YBAADIkWEAAAByZBgAAIAcGQYAACBHhgEAAMiRYQAAAHJkGAAAgBwZBgAAIEeGAQAAyJFhAAAAcmQYAACAHBkGAAAgR4YBAADIkWEAAAByZBgAAIAcGQYAACBHhgEAAMiRYQAAAHJkGAAAgBwZBgAAIEeGAQAAyJFhAAAAcmQYAACAHBkGAAAgR4YBAADIkWEAAAByZBgAAIAcGQYAACBHhgEAAMiRYQAAAHJkGAAAgBwZBgAAIEeGAQAAyJFhAAAAcmQYAACAHBkGAAAgR4YBAADIkWEAAAByZBgAAIAcGQYAACBHhgEAAMiRYQAAAHJkGAAAgBwZBgAAIEeGAQAAyJFhAAAAcmQYAACAHBkGAAAgR4YBAADIkWEAAAByZBgAAIAcGQYAACBHhgEAAMiRYQAAAHJkGAAAgBwZBgAAIEeGAQAAyJFhAAAAcmQYAACAHBkGAAAgR4YBAADIkWEAAAByZBgAAIAcGQYAACBHhgEAAMiRYQAAAHJkGAAAgBwZBgAAIEeGAQAAyJFhAAAAcmQYAACAHBkGAAAgR4YBAADIkWEAAAByZBgAAIAcGQYAACBHhgEAAMiRYQAAAHJkGAAAgBwZBgAAIEeGAQAAyJFhAAAAcmQYAACAHBkGAAAgR4YBAADIkWEAAAByZBgAAIAcGQYAACBHhgEAAMiRYQAAAHJkGAAAgBwZBgAAIEeGAQAAyJFhAAAAcmQYAACAHBkGAAAgR4YBAADIkWEAAAByZBgAAIAcGQYAACBHhgEAAMiRYQAAAHJkGAAAgBwZBgAAIEeGAQAAyJFhAAAAcmQYAACAHBkGAAAgR4YBAADIkWEAAAByZBgAAIAcGQYAACBHhgEAAIjZDtB6Ff8SzRVdAAAAAElFTkSuQmCC;" vertex="1" parent="1">
          <mxGeometry x="210" y="300" width="1284" height="2778" as="geometry" />
        </mxCell>
        <mxCell id="Zl-mfUEg5mn7F1NSgS0E-2" value="" style="shape=image;verticalLabelPosition=bottom;labelBackgroundColor=default;verticalAlign=top;aspect=fixed;imageAspect=0;image=data:image/png,iVBORw0KGgoAAAANSUhEUgAAAPAAAAAcCAYAAABf0zJrAAAAAXNSR0IArs4c6QAAAARnQU1BAACxjwv8YQUAAAAJcEhZcwAADsMAAA7DAcdvqGQAACUKSURBVHhe7X17fB1Hfe/M7J6HXpYlW5It24mTyLETO4HgQG4gEFNKSrg0DaXpBVJKSS7cG5r2lhbakpbXh1AgFHLbAoEESHmkgfpCHoQbCFCc91OO7Vh2bMuPJJJs2ZZkWY+jc3Z35n6/+ziaPTrnSCaf/nE/H76w0c6c3Znf/Ob3mtdaipcJ84GNGTEkMnEyQtAZyPvvL8apFMymTXnRPKHipBCTLVqcPRHIW3u9OKcmjDGqr6/PbWubceOsMqanW4M1a9ZUrTMB3md75dBQbz7KEULrLjMzM6MX8u6hQ4dy2ezILO1Ad/fGGSml5u+gLVONtlMFaVq5st+T8o1+nDUHqM/p7+93Fy8Oso6TUWpiSk3ib5OXD/QiX4+OimJPTw/KkDp+ZV6wTPAmFyfnoLt7ojQPTeDvFpTRko2zUiiVlujVq1ejjDRNeE+hLZnGxnEnzjolhPwaHvblhReWZYhl2v1cD92HhSc2bvRBl4mzFgTyCzKRsWUibmNxIWWZZ57JDHR1uY2NMxkplXSmCo7R2uiWJu37heDoUVFav349+7BmWS9Lgc0nhCpuf+0ZWum3aiPLHY/qTjZmxHfl5scLcVYIKK9baC/+rtDmDA2KmaeMAIFiW8Ndjz8YPlQH+/bty7UvMm/QgdkgpEx1tjRmeKKY3XzGGWfMxFlzQIaPDu3vBr3/Lc5iZmCkealj2dq7wKggzp0D1t3aHFwhjVxZrhvvuiL40eLl5wyI3l51bHnLRcKRr0L7qwrwQmGM9h1H9R0+Vnpww4YNpTi7DCrK0NDeJWD4JVqJNylhlhshV+GXZfj5ALgxjDb9XCj3wc7Onv7orflx9OjOZSpwf98I1RhnWaB2moeOjPjbq9FEUCCHVzatU8J5YzUe4P2CJ/RPli1b96KtxORtW0vwFujcmjjrlADCiuiXHUuX9TyUCPvIyL5Fuhi8W0jVHD5UC2C2cuRzBS/YunLlOSNx7oLw0ksvNWSdwlvB/9MhE5ESGz0Jd3ZvR8e6oTBdAzQww8N7VytjLgVnLgVzFoHytSD+JH4egmIeMsLsDIRz3/Lla45Fb83Fy1Lgibe/tlMJ/V0U80YkEy8MpTWfafS8m+V9vdNxXuh5obyXGyP+FclFUa5gJ+6FaLyr+e7HtkVZ1UHlO3p07walxX1IrsBVSftxrTIburrOHI7Tc3Dw4MF8U774Nink5jiLmBJG/NvwqHd9LcEkjhzp73RMQBqpJKybgjIhXHPO0qVrD4+NHVgUFL278dNrkf+yFBiYNFL+3VQhc2tikKi0w8M7GjOm8XQt9MeRdQWuBv5WF0Z8U0l18+GR4r567WP5x47s+QPQfwsatyTOtgHjJj8qXP01COdEnJfC4cP7Ohyh/xHv00BW8+TDjgx+u63rnF22AtNwyCDzLG7J218HY2jADUuXr72V5bItx4f3vRN5/4zflkaPzAtGFg+jZ2/1jfplPaUhWMfIwN5u44ideGdxko22v4CSLlm6au1gnFcG3zk50NdWcnPnwfZ/FrRuRHY9WaGMTeL6lHG8Ozo61g8nBipBKhw8VYDY/4o/r8KVhI3QT/Giku6douHMVEhaaC8shef9M9zaQjeBN77vieyhOF0Tg4PPL1aB+FPcUrioQJVQsjSziEyK03OwaJGfBYvJNBsllLZn/cxMijE2UKZytAcPJ1pwJeUzXHse1wSZ6nkS4Zo8C+mXHUIDcFRi2+qRkXJEQAOhTO4PtQj+HUkq78KMhBTvhsL/cHlH9lJjflWPNiWFuhCNs59Jh7rSpIdKFsh3vHgu3n8LkqStGj9HiiZDISyXS68t/OzZuH05fIORM0/jb1InnKJZi9SplOlS8fDO11xpbqYHj/Oro7fXNa5eA/7aOhRAAbb7GafqcHB4eH+H52T+Cmy9M1be+eijrDGCuEH6mRv5fphr4ddSYHBJMhxGSARiJK1PItQFhLL/lHdGB+TmzWXh4/P4/9vhVS5AMhECdmK/zMhvLL57y3iUVRt51+lBKbbXqRQQR/AZMDZOz4EzWXDgfc+NkwnAbN2LMVDN8BllImR2LsSdLcABCNg9M9PkQ3gd4Zd6QFELhCDA5aWuyLpXYu5zyUWBdEt7OaajYjBU80seveMXcJ2D38kDhvGm/LzQjHborWk4bcXjs2swtPr62NBp3TRGUXYltqCPzHrcJIZBo3SGcwkkwr0LikVT3XCQ79K8H3eJ4NNLpw2AEM9ksyF9ZXAMCPv3atza5bJv/RRPal0wwBg+jPjSZVgeywTbIl4NeUlHAdXfn6XRDfu3VXjmD7VnvnrihR1t0Q9zQbqFcdbidVveQpnIFZxUpMM+PHbs+RZlgk/AvdCJMdJge9kXpJk8QeQa92FEV9yWULfa8d93IgL8U0aRUXaEX0uBT1y5qXV6celvcUvLGY0HtZhBTU94nvt9uXlXuQHmqqucqate3YU2fAzJZGxF4k7ivzcWJvUEJSfKngs2fufOnVn8/Uskm8LMqIH7cNkComA82vvyeTa4KrxGNw8h+y9xkqC7ng5kJhXSVeLQkiUOvM95qNfmVwnismN8fDxSfFdOQn4+ZxyJcGf2glB8BuOjH8Q0J/DR4ifw2z9UPh++o+WHHScXDj/oeXPu9LUY430BtDL6SGjg/MJBlPFZpeQVxUCcpuBBMW56D/L/bywMCfjOKl/5fzM62j9nTEgeHzq0GoIYtjERSEQmZjv+lvsGBhjKBkddAfYPx74UfCSpBBTkXSgrZRTBr21BUEzxOZ+fcvHseZWKAIH9lnDMp6vxx76kFJ8E3z8j5XS5vf39KymTdltQBfhRUV7YN0b8B34fxZVWZGOu8HK5jyG8rzqGbvb9HETmIrA2kv8QOoBT2+k1TaUM9viLzy0WvvoIGMe+SaI48pXh8Vb09zUYWrwm6werjBZvJp3IZ1Rq84q68/6Ghpk1thE+ZQWmQrpyZjl6451IsrOiDlUYhwh5W+uKAokqY0wcaFae827cUvgSK1sA+U8WM6Vftb/mydTzlRgYGMh3tmVeg9vfxRUZABcNN+Z7uLMnydhZZ7a2tloMnQVDNV1SZ+K20ovurLSYleAsIycYUENKgaGYe9avXx9A+YPOzqE+7fhfgef8J/vC2OXroLUf79qdUQTTHoQ9mPM8rxndcFd7e88kFcuU9Dl4lkOH1ujVEDPg31b077UYg//jyenMwytWrBttX9bz/Pikc6/0xf8U0rkrFNpZIGISV+iiTwGI+iwBvGdjo78C/bcCdFoKLFFHiu45YFmrWkWzo51r8CZ5Sx6NwZgewHjZNlogWfZyZjVOhshMl1xlxBoIeNIvFOyiDMTNKufM4U3lpZX3LzNe4z1dXeeHbQU9TnNzGAV0l9tCXy7UoYxX+rL9Lvrmi3Df74IEk7+c7GPdCVqQepfwcimFSTCT9zN4mPJkGR7lB8rs6Og4Vp5I5bteLvt6GNY/RtIyBpqy+4hW5hr2d1vX8POtqzaMdnQPPRG2W8g/x++HcSU0sc+WOFq+DjpRjixOWYGPF4calZB/g1sSn4AW88e+V/yFvRxEZc8V82tguRFql+siQeNaypvaxJmT9DdRdnUsEuMNSpm/wC1DQZbB9/uN696J8cZjuE+sPH6Tq3K56ksRDHngqeh9UwpML1ppMW1QQBtLS7JoH99NyiYNpaxfepzKywwur3R2bpisvFy3oYB3z4II2bz2tRSPLhscP1HtnVWrVrFzDZettNE34Z68Tt4nvx4XWl+zdNm6hzmhxIkuho+khcthnEAJhPpLaVTlxGCrVOoyLvXE6RD9ra0K4dkG3DI/UW4MDTijXRYg1pxW/AjKc92zYNCvjtOQBfkAijkdP1keUASZYmYHDF6K18V8cxbmZEOs/AT5+aLJmsElS9acrMafyov8Yvv5cl9fn5ORATy61RaObvFT62kjE5Xvrlix9viJCXWX1vp9eGYqfL4MvUgofQ36Yc6wIeNr5IXDsbJMgIAxx5GHkqU2ys7w8I4GhC43w6h2I2uWf0Y9ppW6vrNz7c6I/ugd/mW7VVY+hIc4YWsbPMcoeRl1Ik6nhGpeUCGbXP3buL0SV2IFWPGA8oLPtUy2pLzphPfCYqGCT+E2maUjSujObwQl9aw9Tq4GLi8UXfe3YLnfEGeFioP0V2EDEbKGdUeggkixEqFn1TYxVIsZbllMDQ9sdhWLrTXp4Nquly0lwp2AE19Pl/JuysNUQzi5ZcSFqNV+f8YotafeuJuRR1O+xNl9zmonNFN5RyCsHw3c0mBiPKqhUHBOwrp/K04myGkt3hiHmGVwLRmy9oo4SYAtZkRpMRCnCYn/tSlYwTgdAuHhIhD1QZDG4Q3pGxMm+AaeXY37qB56QCN2Ll69mnMdZYNAb+n43sW4tYyqpnw8xrmFOOOUADudQ1suiZMJUKZ5TohN5bpt0Oj5Ymob6q0Y6iiOxy4LJz8roF1Dui1ZgjMQZkepNFnuE64aODrP6HM1nrT6kJGR+ajvjx9GH5Jnc9B+cBxKLe5H/fTCx+NrBE+XvTtxSgosCgdyiNFJEEOB6F0jimDYvfn86S+KLVvKExSc5EJnXwCTwokre+IJ3tfc2dq43J4gqYqlcF8QBE6MJOEjHBca5JR+qnWAsbOhxYw6JQpvOzlRFaYr4E7mkG8oVBbTVaAduXPlypU1Q2huzACTObljl+uDkkPzCRktMFR4GShkSFfmNXzFft/X47U6j2hqKmXRgTSUrDd5l/z9D61KfUnIWAucwZbGSa8B+6EStrguo+lZkDfg5flxkoBhk4dg7TnRkwg9HhE9rhuUlY3h4UwusxKFwqgr9jEjh1/Rj+Av2xzxzEV5UuxHexkllJWIG1EQnNJwWLxVgVRif3lu4RRRpS2EJ4Xqw9+a/O7u3ljEgOUBUGJ7YfK9G7LWHPXlLJQJ5dpWbAylxI6xsXxZJho8JweusQ9ZTvy+xvBH/XwmaOpDnfYQMI2NG32t/CdB8YdgTT8YX9fj+s6o31Tu+7JQzQfzto2N05kcw6TLcSUMp9/b6Qj9JXpTUBh2Dv4jJ5onFqPNtyDJqe+k8TNg7uea3ZP75/O+HLN6ueKfoMtfj2TCKCr/jRhHjR4/7ngQsl3ISzqFNK2ayTXaIXIZnlsgHfSkiQKzR0YQnh+AUNWkpaGhLSOkZmfN8soIDy9vX4CQQUXR0VKkdwRJ0ZvPq5pGg4qhC/5y1PP7cVaCCZBxS0fH+nLIWA8QgHQdCFPR5nMqd5P5zYUGK8ohIIxmG66UtQfdGYlgPU7RwzQ4Wn0Ut9HSnhHwsPK7oLFyxh5mIBxPpxDuvDKSy5A2PZrGo6OjsW1wcM/SetfAwO4llYpVajQ5vM/+smCmfaUemYdnGsO6Z9CKyn5xZSDPYSQWp0MguqloI6I5I37JORGmuGTnZdxX4pae2oKaQFj+TTiNcNgTZ84Bf0OIf2RJ99n3dCxb+3/K1/K1P7M3Ky1YgSdy2dNA1vsqhJFe9Pb89HRq0Zuz1MrNvReF452ysjOM6TOB8wN7lroaKMDDKxe3oREcl0ShOkIbtHZvYJx7kw0JeK4yhHVVYLjJYw5kRnH5xQ55IChitx3yVEOh4LOT1uKa5ZWEJwzEtqSz6gDSru1xUoI9njdd812OuYwjGAamLDyuQ8L19oIv89ULCz6B5smKMV2IlMBT0IzncgeUxRsOLdQu4wQ0kFXBmWdHZ9ehtLchSTo5Qn5IuJqTa2eiv+w2ewp9H9+HoOJFxtFwJcOWw1b8+DWlvR1ZJfrqXM/lHPXTY8f6opUJAGU6yg9WoOH2hB94JfsbvJm60RIVBmLHpa9qSlXBMxgNI22ZgGNUJenLvbgPHcrwcDtDedv5EPztkJa5p+oprw0+V3nFP4VYkAJz7Oto80e4XYfL7pjHja/vFg/sKLt0bq90nOIy1HMNkiQ+brw5icpvasyNMZavC3QKxg4+vQ8FK6IRoY0S5rsjI8VwzXj9+mNaKrUft7PCDKmTqoYCc12wQiFAY68d8lRDNsuQUc7SEWE8cGTdMWiEcD2SM+jp9UhpdjOCiFNz0NxczMSeyaaXdD6iVKaaUs5FbwvqNmXhjsHOTwlAuHykdIUCK4ws5PNLX5g+jtyqgsaZZ4TOnFllHQ6oIz9vQwgLWYBwz87Y831fGvVMlCwjijJQFO/DnFkw/O6c52rHldoRxn3JMDqvRMNT/Qx69ixkvkJr2vTq7U1A5eXSHupYiWTCMxqvI0U1MZYoWDbbDM6FfZiORITZhmFI7dD5FDGvApurzs1O6RcxBpR/h2SysK3xvxkEejc0nWwYoaTE+WL0qYualYYa69QsNSB/UJjRP1uA95WuVqthej6M5Ky3x/jCLZXunN0OuAlDNA7sQ6ZHkMKBbTwjTqWAYrnzxQ55wEz5YD0vSouuPZeTSOVZvxjbcrnaITDBdkSb+uWlSCbtCDdeHDnuP1JvWyMPJ4CnFV5Mc8Z82/R0fl5BJLgerrRrCzKB0N88yYMfcRpj7SlXacVZWzs6mdFO0GcfDkgglQNnapyik1kPd0CjThkqSkc8vaRr7RaT1YvQIRyDJrSzriddU0yN2alsCEP5nF3vqcCDrjw6Pp4r08i2yLltCcD17QuZFIuM9Vxwb3p8y3F7NigG9Ky2I2Nfbrf5Oj1d4sYWDtnsMuGB1f6ZmfF5aVko6iowOkJOeM0tGMddH2clmEDn3dOk1D6xZUuZaHrfhgZ5Hizzm1ByIjwktqSVuqW9eSI9pqoAhZ4Mwuj9SlSebJmkgmoI3ren3JK9i8d4JjiCJswqMDtOG1r1MlgmLjjvcLIk6Vi8o3wMzOjBa05siN5epeZ2AuPibQi963YCx0yu21K5Ob8ICrbW27ZJMGxHTMalFUsQlQmEPsqTU3FGXXR2gv9G0wPYCMCtlNfKFnQGHLI3PVDg2b5qhs0xyl+GCKkBysN1eUYWbMuUFmYz1ye1458NQ2MLN7yvOeA35lL8Cmd2pezBLfs4QjQDTPoWck3Cw+3rGR8v8yMz1cQ20HGk6tdG7+RppThdFTRKxnc4ZrWVn2VDTtw+GPrQULS2IjoShuGzjRIcxw6blnjDC6OT2faBt+jXvvmivlNBfQ981bkZR7oci709yghBIge1Yz7J00agLhRG/EfS+0JfuEOL4U1UdjhLbf6lecOju+fzvoBa0qi6lJTXotkMowi0WRzB2PfHXI8dHd3fygthTEs2yDKctgWaXKvYKrnFGRs6sBLlcVN71LHhwr55KZNxuCRTU5m4PorBDi16SoF1IB6uFwIT3FDiBKEnssF6t4mNG22aa4F12p0vHKWCYrFYV/kTcDkNQkWBtOFzbGsLGtdh8edciG3URh/8hDBa3mS2PrwstFwhiopGkgcWGJnwuf3Gyd7JmXOjzcV43+YXZ7T7KiMHd7oIbxkOL2aVzRVjGANdlikVT3dy7qp5rrVHRrzvc7Y2flsUGwIYhXBbpl2/ly3lqkYTNrh+jPbRs84Od6KdZLu5yyuRE9dtcHDDqKwMpH0p9HN2v8bLban+I5BbnM+AnwrqKnAhaMFYw3wSdCTKRG2ZRu23e9M6dVxq9PKLWvI5eTV+Y8iYdAo3eBzU2rltvg0bxNDQ3rZABZ9AGVz0Tmjj+u5yuNb9fr70YlD0Xypfyt+J31uix0Kw3tTpk4GBnkzglOh9Z9vqckJNPjFfKENrC+Gz147J+MBtcJ+bbwKLZzyhQPbaKlFCj6a2J/5ngFGHKITH07hmb2Mav/3cXn/mOiyImRV4LvkIs9NS8jFcEb0IrYwjG6Sr3o9EF3LI0wnw6Ku+PzrByAHRiR3p8E3PaPkUzzfHOSE8kYHyG/LWlsHjM4HuX3z6+WPt7WeNz3dxGGIbYJB+HhI0SInisJ1PTGdH5h3uhGN6KS5D0uYFI8aHCoVFIb/4HNf1UTijsjKQLiA2eSY9J+JXet//FFRVYDCBXJHaKG6X5NppEg5rvNCPDvtO+/1PMowJwWezWQzqpbwaFNtnSafQ57e15DJzjlZVgrOaWaE4083QrHLsRkZQUatdNhw8ybCsjHADhw7PmdrMDKQyR3j4Ok7PATtLei4nxGhMEoPEmfCBtrYzOSFXV4ER6bINlSFsePIJf1FMbWDMxd/nPIM6FyQQQ0O9DYEbUBjtvmBbB2Qm6Ecx5XZrJzxBZPM7MFrstZS8P4pYQtD7dKBPr8I930E55qB09QNc08wblYds0OsnSkBTMi5z/rD9IQDwlrNkZ6FB9kEY3u1tLGXrGtV6QGWvQmEp709+22PTaiC/im7mItwyNE48MHlUgCY8tHr16tj4bIkOrczOBREo2+wvlSojMnd2j0IadfuQvOHKwJEj25sqL8pk/FgZVRVYXHWVmrriok48/RGkZkNZjDuM0H/d7K5ITVyJD2zkpo3rcJdsYSPYEb/wveK/yc1b6u53JtraMouMCnhSw14COFWwgW1o6GxYRlQc/l8Y0FkynICioMaMCyczfgIFqNYxZZDR2Wx4ase21HjHjBQDuWO+9/lVDTy7G7e2MDs6MOctXVp9oiUB686r1tXSyI+AatvAeRgO/HsQeKkNNKDEXuqgQo5kGjI7Z5XccHSc0JvBePbNSCTbAouIZL6O8fIJ/ujL4HQ8aR+4CHcnZWd06gQSeIuoKpzAsg0Ha394Pm9ZF0bTeNhlBlrLR3t6BmoqMPnVKBthlAy3B3NIEPc1oyXzkFvI8SMB4fucsXeijSepOlDEY+jvVBuDwOdprkpj5GhtNgwtTxmZFLiEeOxI95sdk7/HMbn7oiv/Y0fn7zh+fM/ySiWuqsAThQNt0nWokBzLRi/ocBfQQ34p80zqqODll+cmR/Jcy6NVTmZr2fnjqOvrkKC6O4YSZJTZBMv+Vt5GOSEobMk2smoXT5GkmeQLOXJ439kVZ18rFEa7MHTtlTuSEoBJ6uRAxyK0nKdrrM5SMxhY/jJO1AQn4owPT2QqvYHc1+QXawpTgnhvNj21/SzpuBxj25oGjnQPDj7fro3+EJKcjY/616fyisOBcn7Y1TVaFjQKA/LtpUEPWXv4OZc4XQl6pyTMJI1DEO2f8FM7uKeZ5LqwLVMoR/ZWTmD19XUouBlGRSnDCtHcXS8qqodQsGXYFrt+H05hrxCbqpZJfh050r/Ul+pvUTkVc5YeI0aNNN8ZnJoqyy9nuYVRlWeXNYzRvspJv4YG1wM9/EiB3XYuL1xiTFPlqkYItmFxrtAFo/o/kLwEvMNYO/xAxCvRukGlnMlK4z9Hgbnmm8lk1wsdnp4goZGQKzENSm+u3AI51nw0r7TmLDV3OiUCy1H6A00Z87C4r3dha16zWyYTpSpAvP5eBeoC43jnVbtg3jlh8TgFNHolQuAEiykkvDfGx5BOV0QAKo9ffgfhNb31HCXmt5RKTuYd6EQuPSWdyrh2EPb2yThdE9EOI3M2WmJ3dDi7O5Mz83oYntiBNPKghv0s5wJeZQL1DtBcNaLg+nlWyffgORoeKlvUNozlQPu3p6fdQXujPSx6M/K5DpuU50Ojd0xN1V1yoSFhuezXe5asHErCYzisynXPcK/57pMn3VSbm5qaYAflBei32QkjwNPiaX4zK04uGFREtgV3VOCkfirtZL7oDcxGE7MgD/lJG9cE/xukXw3q04ZRijuzXvCovdwXTmDJcAbabiPspdgbflfLAiftwMtHcWt7ZgdsvzjrqIuqyR33vwfS+SvUvQlJ8oa85uUbre9ob++ZswdgTiHjV13c7vjiLvzA0zeJ9+HJlI8Xi/orS+5/sqzAXCMueIuuRGfchmQSaoNZ5jmtnKubf/joLpSTshiV4IGFRY3iUqX0z+Is2iwPQrd9xm98Q3wypyp4uLklX7oJFfx3JBOrRqtf/vQLPfHIUHcPRl290IH0mBDCihDrRlfLcJ2ymEN7i6pFui48WPBe+3nUMYIOuX6ykL3b3spWDTwI7mezt2E8aI/nwXz5zuGR0gP11oATjB08uNjPF/mJHobxNvCuuR39f4cKxAGd8wKnlHONo38LffQBtP414J0lYGKCwlgKJj60YsWFZW/COYeuJbmLwYYtcRYxDj963dKuwc2Joh89vOdf0YeccbZ34IW8c3VwZVv3uS8wg3w+fqSbxvQV5fqNOKGdzLrOzjOOJp6Dght9fsh/EcnU8Axh/59EyfmhpZnR0nmmq+usY4x4Fjf7FwtfPVCuO5Kh3Xjw8+i3cn9pyXPH4ViZxr9ytxvpoJI827F8rb21NMSxY7uWC9/hbqvkWCCfP6GyajVPEEVZEdjOE4d3nwbv/hDq447EBDQmU3jxhkDo+xwnmHG8fAbyug6m4H/ht9/BlRh+ls+hz8d8WfzKsmWvmKPAKQ/MAwgZX7wJjbMnIihsx0TGv719lZ9SpolCwyIIKT2n3bk8q3pXadp/aT7lZSMbGvxmKC8Jn4XLmU3x7fnW7nwfhsmQ4dZmDkCGc20RwuNZ3Wfvwx0/uWKXx7Xh85Q039SO7i25mTtkkHkYQwd4vlB5k45l2RwPPeYWsj/lFwej7NrgfmzwZc56JFzowQVsvwyxePXqCa2df8BtJQ9Al3wvhPI+iOJ20Pwc6H8WRP5zrLxJ50df/DDiSUQNX+Jm/Tg/RLhOLDT389oowTXuQMhZphGRwDCeq/RgGPuKu/2M4hCG/ajCHV2R8pa9OV4e4uy0HfZhjJcLiqULUKYdnUBURDO827cWdAnzTfTHp9HEUJGWLGFE5fDE16w8R4q8Xihzi/0u2nMrKmPESOW1aSCNVJBHAql5PjgFtDFZJ7b7lDzdWm01g20+PpU5AtbciqTNP9LYDBo+C3K3hv2ngq1Q3h8gn6sGtvIicjSPU3ntoY+NcoPxtBxtKDSC0L9GkowhU4kCmPWFps1PD6fO+uJ3J5t9B56yt/xxzbY/8L2v2LPUtcDOzLry91AWZwATsLH7pWt+ZK/xVUM4OSHNVjTDDl9I94X2p1/AzCBWBnoLW4HYGQydOiBub8JfKt1SlEfPS0aSiQw/twZS/gWPw9nCWAtO4HOWklvtks7GO2YAXHqJtMR5dcHnTk6LB6GoH8fbnCSy66XB5HY+Thhx2YxXayy0bH9o5ZH+kdLqfUu7D/MkUKpehoP4Y/Od5Q8ETjG1Ng55QFmpzTI893o0wPhw6dK1sUfYopoy3rq4/kSmMHYRz1fOAIcfRxBqPR6bVbYIpJt9Mf8lBR3HEw2ed4K0hp9jFZonxhKZTcA20stXlsElHsoHaSCvaJB4bO+Lwg2u6epaN2cPONeJofyclLTp9sGp1M42Gz09PSWZ0fywHkNp23uSTuoY5STpP94nQwrym8/fL426jp7XnsW3USaGBxDyeYX4O1z3TPJpwZ8I3Mz3UONsp8JTT1/xOp6W4dcRk/22/P0kBO7GlsmWE/bztdDYaFoxbno/niXh9PRk5ElYgZuCoLgAZdmEgYRiWEjrxPfDCyH9nE+/HBsrcmMyj0I+gIsbQBhNJIznaNUWPpbHcfMRkPAlLcXVXV1nvzA/PRHwHHlIwYhp0vwCyfaFboNMwHOqsPtfhuBciyRnpUk3w8G5dETzAKSZk3uPgYfXZkrF69pX9AzaHjUBt/qhEI4ZE76hzfJZz0MMZkFxA9jsM7ym0Ge3TUw4Q2gn2xiutSOKonDbz02C34/Zm0YIHmBABg+WVJZ7CpeegV25t5AJQq/EoQ94xDLJgyrPpy6+Q+WAnAl+RnYPZPZTgdJvwZDt89z/jXbN4Rc35iCyYx3kT1LWNEL5bbVmuSkvHMaVdHiq7Iu4YCT0dNxXNtifLIN9i6jG7IKZ/EjW965bsnyQn46qiVDI8bacuOJ1ZzuOvh1JEpkIMjRf/nlDofXH9ofazWXnNxWaGj8AK/j3SCYun0Q9FZjgPYvufmre7+syJDk2tPdiqcSfwaS3gRAYG4MhinzJLWY/vFBvx2NlOYZJJlxTjCDFGJj2QX5tIc4JwXHa4OCyVnp9NPr1qPPVEMYVeN62qsSjqHqrFM59Mqt2t7Wdydm/qp1UDccP7/lj0PMO1BiNoWW4B/mHHQOT35lvR1A1cJ5gcYN/unQUl3A4Jub8BD1L2H9oC8ekezGGfByJBwMn89jJk8GJ0ANU4SF4H35XOqvEl/Euvbgg75WW39Oudxe/VBE+CBw9/Pz7UMnbwadojkGaglbOhzo7e3gMMyybRz+PrWj+I9RPAxlDcsPPFzuWr+ExvrISc96iOV/8NCzv+ejrSr4vDFL4JybVlfxwPVKGyyvwhTejLVw1qQv2oxamHwp/SEi9V3qyV+e8cX4Gp5aXI/hhwQZ3+vNQ2LVlusELR+obKj+TWw38tpYKMueC+VdDbzaiDTR4Uf9FynsEke4u6MIvII4P+qrwYlfX+Tw2WrfcpIBwH7PYdXFOFLhZyMJkS0lu2ZJqGDpGcu232r/IIO6/nwXMEZpqgCCF/9JCLpcr18mtgguZ5ElAYeQkRpwso5bwEjQeDIk4G1p5NpZgSBR6jo0bETnXZ2A10FBUfvWCVrqegCwESbl5hEpKDaf6KfwXAfgZ2o0bNYU0zq6JanyLPMkmtrnMt+ptmfsvPiz8Oahub6/Lbapx1q8F+1/SqCUDtUAZ42m2MIJboGGuRXe1NtYCy+Ae+Wpyl/wLISiPMsI+XJAO/Qa/wW/w/y2E+H9lPdVf2EEwIgAAAABJRU5ErkJggg==;" vertex="1" parent="1">
          <mxGeometry x="447" y="1641.75" width="810" height="94.5" as="geometry" />
        </mxCell>
      </root>
    </mxGraphModel>
  </diagram>
</mxfile>
